<svg width="938" height="1166" viewBox="0 0 938 1166" fill="none" xmlns="http://www.w3.org/2000/svg">
<path d="M326.635 0.19162C335.865 0.279954 343.358 5.76035 349.884 11.9368C352.281 14.8132 352.281 14.8132 352.281 17.37C353.546 17.7918 354.812 18.2137 356.116 18.6484C356.116 19.914 356.116 21.1796 356.116 22.4835C358.647 23.7491 358.647 23.7491 361.229 25.0403C361.229 25.884 361.229 26.7278 361.229 27.5971C361.967 27.9398 362.706 28.2826 363.466 28.6358C366.413 30.1913 368.925 31.82 371.456 33.989C371.456 34.8327 371.456 35.6765 371.456 36.5458C372.299 36.5458 373.143 36.5458 374.012 36.5458C374.012 37.3895 374.012 38.2333 374.012 39.1026C375.041 39.5376 375.041 39.5376 376.09 39.9815C386.367 45.6616 389.587 52.5911 393.187 63.3919C396.443 65.5492 396.443 65.5492 400.298 67.4668C401.591 68.1441 402.885 68.8214 404.218 69.5192C405.718 70.283 405.718 70.283 407.249 71.0623C407.249 71.906 407.249 72.7497 407.249 73.619C408.04 74.0145 408.831 74.41 409.646 74.8175C411.403 75.6964 413.161 76.5753 414.919 77.4542C414.919 78.2979 414.919 79.1417 414.919 80.011C416.609 80.8902 418.319 81.7331 420.032 82.5678C421.403 83.2797 422.774 83.9916 424.186 84.725C429.157 86.4647 431.444 86.0775 436.48 85.1195C441.905 85.1295 446.329 88.5843 450.712 91.5165C450.712 92.3602 450.712 93.204 450.712 94.0733C451.488 94.3501 452.264 94.627 453.063 94.9122C456.823 97.251 457.502 99.5675 459.101 103.661C459.634 105.026 460.168 106.39 460.718 107.796C462.725 113.389 464.491 119.021 466.051 124.755C466.895 124.755 467.739 124.755 468.608 124.755C469.01 125.481 469.412 126.208 469.826 126.957C470.647 128.437 470.647 128.437 471.484 129.948C472.352 131.515 472.352 131.515 473.237 133.114C474.777 135.862 476.358 138.579 477.956 141.294C480.113 145.209 480.113 145.209 480.113 147.766C480.957 147.766 481.8 147.766 482.67 147.766C482.67 148.609 482.67 149.453 482.67 150.322C483.737 150.797 483.737 150.797 484.827 151.281C487.783 152.879 487.783 152.879 490.819 155.516C494.683 158.368 497.073 159.068 501.844 159.271C504.826 158.249 506.488 157.206 508.655 154.937C511.948 151.767 515.812 149.556 519.666 147.126C522.617 145.208 522.617 145.208 524.854 141.374C525.698 141.374 526.542 141.374 527.411 141.374C527.411 140.53 527.411 139.686 527.411 138.817C529.728 136.1 529.728 136.1 532.524 133.703C533.79 133.703 535.055 133.703 536.359 133.703C536.359 132.86 536.359 132.016 536.359 131.147C537.203 131.147 538.046 131.147 538.916 131.147C539.047 130.329 539.179 129.512 539.315 128.67C539.75 127.364 539.75 127.364 540.194 126.033C542.092 125.4 542.092 125.4 544.029 124.755C544.873 123.911 545.716 123.067 546.586 122.198C551.264 120.846 553.448 120.551 557.931 122.597C558.827 123.309 559.724 124.021 560.647 124.755C560.647 125.598 560.647 126.442 560.647 127.311C561.491 127.311 562.334 127.311 563.204 127.311C563.204 128.155 563.204 128.999 563.204 129.868C564.047 129.868 564.891 129.868 565.76 129.868C573.021 138.964 575.987 149.016 575.987 160.549C576.831 160.549 577.674 160.549 578.544 160.549C581.259 168.069 583.097 175.79 584.935 183.56C585.174 184.559 585.413 185.558 585.659 186.587C587.602 195.429 588.458 204.387 589.404 213.378C590.16 220.524 591.081 227.646 592.011 234.771C592.207 236.434 592.403 238.096 592.605 239.81C592.735 240.838 592.864 241.866 592.998 242.925C594.066 252.518 593.675 261.762 592.925 271.37C592.807 272.95 592.689 274.53 592.568 276.157C591.768 286.116 590.49 295.741 588.426 305.507C587.385 310.651 586.631 315.782 585.974 320.987C585.771 322.582 585.568 324.178 585.36 325.821C585.048 329.31 584.908 332.565 584.95 336.048C584.935 340.802 584.935 340.802 583.657 344.637C583.684 347.602 583.684 347.602 584.056 350.79C584.157 351.853 584.257 352.915 584.361 354.011C584.848 357.512 584.848 357.512 586.233 361.052C587.692 365.735 587.909 370.143 588.051 374.999C588.573 389.482 588.573 389.482 595.801 401.446C597.383 402.434 597.383 402.434 598.997 403.443C599.545 404.086 600.094 404.729 600.66 405.391C603.645 407.985 606.226 408.204 610.102 408.796C612.008 409.101 612.008 409.101 613.952 409.411C614.923 409.551 615.893 409.691 616.893 409.835C616.893 408.991 616.893 408.148 616.893 407.278C620.267 404.999 623.249 403.455 627.12 402.165C627.12 401.321 627.12 400.477 627.12 399.608C634.038 394.494 634.038 394.494 637.346 394.494C637.346 393.651 637.346 392.807 637.346 391.938C638.612 391.938 639.877 391.938 641.181 391.938C641.509 391.229 641.837 390.521 642.175 389.79C643.962 386.398 646.063 383.391 648.292 380.272C651.366 376.021 651.366 376.021 653.964 371.484C654.808 371.484 655.652 371.484 656.521 371.484C656.521 370.64 656.521 369.796 656.521 368.927C657.365 368.505 658.208 368.083 659.078 367.648C659.5 366.383 659.921 365.117 660.356 363.813C661.2 363.813 662.043 363.813 662.913 363.813C662.794 362.587 662.794 362.587 662.673 361.336C663.146 353.607 666.457 346.581 669.464 339.524C671.624 334.3 672.491 329.705 672.665 324.068C673.273 320.937 674.659 319.904 676.974 317.791C677.888 315.102 677.888 315.102 678.253 312.678C679.096 312.678 679.94 312.678 680.809 312.678C680.941 311.992 681.073 311.307 681.209 310.6C682.319 306.765 684.077 303.425 685.922 299.894C686.766 299.894 687.61 299.894 688.479 299.894C688.479 299.05 688.479 298.206 688.479 297.337C689.323 297.337 690.166 297.337 691.036 297.337C691.036 296.493 691.036 295.65 691.036 294.78C691.879 294.78 692.723 294.78 693.592 294.78C694.436 293.093 695.28 291.405 696.149 289.667C696.993 289.667 697.836 289.667 698.706 289.667C699.075 288.928 699.444 288.19 699.824 287.429C700.299 286.48 700.773 285.531 701.262 284.553C701.658 283.63 702.053 282.707 702.461 281.757C703.819 279.44 703.819 279.44 707.654 278.161C708.498 276.896 709.341 275.63 710.211 274.326C713.153 272.956 716.134 271.667 719.159 270.491C719.159 270.069 719.159 269.647 719.159 269.212C721.635 269.109 724.112 269.034 726.589 268.973C727.968 268.928 729.347 268.884 730.769 268.838C734.499 269.212 734.499 269.212 736.91 270.985C738.334 273.048 738.334 273.048 738.334 275.604C739.177 275.604 740.021 275.604 740.89 275.604C741.998 277.701 741.998 277.701 743.127 279.839C745.352 283.676 747.077 286.311 751.117 288.388C758.776 290.123 765.422 289.586 772.848 287.11C772.848 286.266 772.848 285.422 772.848 284.553C773.692 284.553 774.536 284.553 775.405 284.553C775.51 283.525 775.616 282.497 775.724 281.437C776.921 275.752 778.756 270.358 781.796 265.377C783.062 264.955 784.328 264.534 785.631 264.099C786.979 261.732 786.979 261.732 788.188 258.985C789.404 257.281 790.658 255.604 791.943 253.952C794.207 251.006 796.158 248.235 798.015 245.003C799.693 242.366 799.693 242.366 803.528 241.088C803.528 240.244 803.528 239.4 803.528 238.531C810.831 233.529 815.739 232.829 824.46 233.338C836.046 233.964 844.785 232.032 854.661 225.747C855.504 225.747 856.348 225.747 857.217 225.747C858.061 224.06 858.905 222.372 859.774 220.634C860.618 220.634 861.461 220.634 862.331 220.634C862.437 219.492 862.437 219.492 862.545 218.327C864.099 214.227 866.552 213.472 870.4 211.525C871.634 210.889 872.868 210.253 874.14 209.598C875.305 209.021 876.47 208.444 877.67 207.85C878.664 207.352 879.658 206.854 880.682 206.342C881.375 205.996 882.069 205.65 882.784 205.293C882.784 204.449 882.784 203.606 882.784 202.736C884.471 202.736 886.159 202.736 887.897 202.736C887.897 201.893 887.897 201.049 887.897 200.179C889.584 200.179 891.272 200.179 893.01 200.179C893.01 199.336 893.01 198.492 893.01 197.623C896.395 195.755 897.989 195.066 901.959 195.066C901.959 194.222 901.959 193.378 901.959 192.509C905.755 191.244 909.552 189.978 913.463 188.674C913.463 188.252 913.463 187.83 913.463 187.396C927.391 185.394 927.391 185.394 932.638 188.674C938.096 196.861 937.261 208.566 936.473 218.077C935.222 223.389 933.372 228.351 931.36 233.418C930.867 234.731 930.375 236.044 929.867 237.398C927.663 243.239 925.388 249.046 922.991 254.811C918.951 264.571 915.618 274.183 913.463 284.553C913.216 285.69 912.969 286.827 912.714 287.999C911.425 294.411 910.693 300.717 910.268 307.245C909.076 325.401 906.483 340.167 897.884 356.303C894.191 363.45 893.01 371.176 893.01 379.154C894.065 379.286 895.12 379.418 896.206 379.553C903.065 380.901 910.205 382.425 914.742 388.103C917.106 401.001 908.872 412.249 901.959 422.619C901.115 422.619 900.271 422.619 899.402 422.619C898.558 424.728 897.715 426.838 896.845 429.011C896.002 429.011 895.158 429.011 894.289 429.011C894.025 429.723 893.761 430.435 893.49 431.168C890.995 435.365 887.971 437.585 884.062 440.516C883.218 440.516 882.375 440.516 881.505 440.516C881.505 441.36 881.505 442.204 881.505 443.073C880.662 443.073 879.818 443.073 878.949 443.073C878.949 443.917 878.949 444.761 878.949 445.63C875.251 449.089 871.35 451.407 866.885 453.7C857.243 458.953 852.729 466.533 848.269 476.311C847.425 476.311 846.582 476.311 845.712 476.311C845.712 477.999 845.712 479.686 845.712 481.425C844.869 481.425 844.025 481.425 843.156 481.425C843.024 482.295 842.892 483.165 842.756 484.062C841.37 489.985 838.855 495.266 835.965 500.601C833.997 504.895 833.397 508.705 832.929 513.385C833.773 513.806 834.617 514.228 835.486 514.663C835.486 515.929 835.486 517.194 835.486 518.498C836.475 518.973 836.475 518.973 837.483 519.457C839.988 520.741 842.424 522.157 844.834 523.612C850.722 526.982 856.42 528.585 863.209 529.045C869.51 529.726 874.561 532.677 880.097 535.607C883.893 537.586 887.726 539.326 891.652 541.03C896.565 543.221 900.443 545.616 904.515 549.179C905.781 549.601 907.046 550.023 908.35 550.458C908.35 551.302 908.35 552.145 908.35 553.015C909.537 553.529 909.537 553.529 910.747 554.053C913.463 555.571 913.463 555.571 916.02 559.407C916.415 564.837 916.443 568.814 913.463 573.469C912.62 573.469 911.776 573.469 910.907 573.469C910.485 574.734 910.063 576 909.628 577.304C905.225 581.139 905.225 581.139 901.959 581.139C901.959 581.983 901.959 582.827 901.959 583.696C900.271 584.118 898.584 584.54 896.845 584.974C896.845 586.24 896.845 587.506 896.845 588.81C896.002 588.81 895.158 588.81 894.289 588.81C894.289 589.653 894.289 590.497 894.289 591.366C893.445 591.366 892.601 591.366 891.732 591.366C891.416 592.157 891.099 592.948 890.773 593.763C888.872 596.996 887.339 597.398 884.062 599.037C882.441 601.636 882.441 601.636 881.505 604.15C880.662 604.15 879.818 604.15 878.949 604.15C878.949 604.994 878.949 605.838 878.949 606.707C878.105 606.707 877.261 606.707 876.392 606.707C876.392 607.551 876.392 608.394 876.392 609.264C875.115 609.71 873.838 610.157 872.522 610.617C870.856 611.204 869.19 611.792 867.524 612.38C866.681 612.674 865.838 612.968 864.97 613.271C860.767 614.53 860.767 614.53 857.217 616.934C855.087 616.986 852.956 616.989 850.826 616.934C850.826 617.778 850.826 618.622 850.826 619.491C847.607 620.754 844.385 622.004 841.158 623.246C840.258 623.601 839.357 623.956 838.43 624.322C832.709 626.51 827.496 627.697 821.424 628.44C821.003 628.861 820.581 629.283 820.146 629.718C817.597 630.052 815.046 630.383 812.491 630.672C809.858 631.004 807.355 631.531 804.806 632.275C804.806 633.118 804.806 633.962 804.806 634.831C803.389 635.356 801.972 635.88 800.512 636.419C798.641 637.115 796.77 637.811 794.899 638.507C793.967 638.851 793.034 639.196 792.073 639.551C786.687 641.551 786.687 641.551 781.497 644C777.139 646.044 772.417 645.78 767.735 645.059C764.459 642.662 764.459 642.662 762.622 639.945C762.622 639.101 762.622 638.258 762.622 637.388C761.488 637.046 760.354 636.703 759.186 636.35C755.232 634.932 752.133 633.159 748.56 630.996C745.759 630.107 745.759 630.107 743.447 629.718C743.447 630.562 743.447 631.405 743.447 632.275C742.603 632.275 741.759 632.275 740.89 632.275C739.685 636.438 739.685 636.438 739.612 641.223C742.354 644.712 742.354 644.712 746.003 647.615C749.657 651.368 750.995 653.172 751.756 658.402C751.001 663.784 749.526 666.517 746.003 670.626C743.127 671.745 743.127 671.745 740.89 671.905C740.89 673.17 740.89 674.436 740.89 675.74C739.625 676.162 738.359 676.584 737.055 677.018C735.027 679.063 735.027 679.063 733.14 681.493C729.64 685.84 729.64 685.84 726.829 687.245C726.407 688.511 725.985 689.777 725.55 691.081C724.707 691.081 723.863 691.081 722.994 691.081C722.994 693.612 722.994 696.143 722.994 698.751C722.15 698.751 721.306 698.751 720.437 698.751C720.699 699.802 720.961 700.854 721.231 701.937C722.847 708.632 724.392 715.116 724.831 722.002C725.282 727.991 727.162 732.88 729.59 738.341C730.664 740.938 730.664 740.938 730.664 743.494C731.534 743.837 732.404 744.18 733.3 744.533C737.563 746.256 741.782 748.065 746.003 749.886C746.003 750.73 746.003 751.574 746.003 752.443C746.9 752.76 747.796 753.076 748.72 753.402C755.714 756.443 760.851 760.181 765.178 766.505C765.178 767.349 765.178 768.193 765.178 769.062C766.022 769.062 766.866 769.062 767.735 769.062C769.561 771.694 771.222 774.301 772.848 777.052C773.303 777.802 773.758 778.552 774.226 779.324C776.485 783.075 778.638 786.839 780.518 790.795C781.362 790.795 782.206 790.795 783.075 790.795C783.075 791.639 783.075 792.482 783.075 793.352C783.918 793.352 784.762 793.352 785.631 793.352C787.279 795.219 787.279 795.219 788.987 797.666C789.842 798.868 789.842 798.868 790.715 800.093C792.023 802.3 792.023 802.3 792.023 804.857C792.867 804.857 793.71 804.857 794.58 804.857C799.463 813.317 803.116 820.457 803.019 830.35C801.929 834.078 800.495 834.893 797.136 836.817C794.04 838.042 791.04 839.116 787.868 840.093C786.981 840.37 786.093 840.647 785.179 840.933C776.98 843.361 768.852 844.468 760.36 845.306C756.217 845.621 756.217 845.621 752.395 847.044C748.81 847.153 745.258 847.192 741.674 847.169C740.63 847.167 739.585 847.165 738.509 847.163C735.175 847.156 731.841 847.14 728.506 847.124C726.245 847.117 723.984 847.112 721.723 847.106C716.181 847.092 710.639 847.07 705.097 847.044C705.097 847.888 705.097 848.731 705.097 849.601C703.41 849.601 701.722 849.601 699.984 849.601C699.773 850.418 699.562 851.235 699.345 852.078C697.427 854.714 697.427 854.714 692.953 856.073C681.709 856.883 671.858 848.073 663.232 841.885C660.398 839.41 659.286 837.642 657.799 834.26C656.12 833.36 654.409 832.517 652.686 831.703C651.331 830.64 650.001 829.546 648.691 828.427C645.371 825.362 645.371 825.362 642.46 824.033C642.46 823.189 642.46 822.345 642.46 821.476C640.917 821.598 639.375 821.72 637.786 821.846C635.722 821.99 633.658 822.133 631.594 822.275C630.582 822.358 629.57 822.44 628.528 822.525C621.103 823.012 613.09 823.236 606.941 818.405C606.402 817.757 605.864 817.11 605.308 816.443C599.789 811.191 592.962 810.666 585.729 809.511C581.403 808.746 577.573 807.565 573.43 806.136C571.036 805.616 568.639 805.11 566.24 804.617C557.557 802.506 549.949 798.648 542.751 793.352C542.751 792.508 542.751 791.664 542.751 790.795C541.638 790.296 541.638 790.296 540.504 789.786C537.449 788.136 535.235 786.27 532.684 783.924C526.748 778.654 521.359 774.577 513.744 772.118C512.711 771.783 511.679 771.447 510.615 771.101C509.83 770.85 509.045 770.599 508.236 770.341C508.346 780.268 508.468 790.195 508.603 800.121C508.666 804.735 508.726 809.348 508.775 813.962C509.148 855.222 509.148 855.222 513.988 896.137C515.132 904.363 515.621 912.66 516.181 920.944C516.633 927.253 517.237 933.38 518.473 939.587C520.096 947.953 520.432 956.318 520.859 964.815C521.688 979.58 523.005 994.239 524.774 1008.92C524.927 1010.22 524.927 1010.22 525.082 1011.55C526.284 1021.74 528.014 1031.58 530.439 1041.55C531.479 1046.25 531.807 1050.61 531.965 1055.42C532.298 1062.97 533.144 1070.28 534.397 1077.73C535.241 1083.33 535.803 1088.94 536.359 1094.57C537.12 1102.24 538.125 1109.74 539.645 1117.3C540.282 1121.15 540.523 1124.95 540.753 1128.85C541.204 1135.88 542.642 1142.2 544.498 1148.98C545.659 1154.14 545.57 1158.82 545.307 1164.08C536.733 1166.28 527.868 1164.96 519.741 1161.53C515.665 1155.88 517.499 1148.94 518.303 1142.43C519.467 1131.68 520.105 1121.22 519.741 1110.39C519.709 1109.32 519.678 1108.25 519.645 1107.15C519.006 1086.22 517.244 1065.71 513.904 1045.04C513.39 1041.63 513.017 1038.24 512.71 1034.81C512.329 1030.6 511.71 1026.56 510.872 1022.42C507.792 1006.17 506.876 989.367 506.116 972.86C505.892 968.29 505.323 964.015 504.401 959.542C504.028 955.267 503.757 950.991 503.482 946.708C503.259 942.854 503.259 942.854 501.844 939.088C500.255 930.097 499.213 921.118 498.728 912.002C498.314 904.795 497.397 897.858 496.172 890.749C491.699 863.837 491.23 836.654 490.888 809.436C490.721 798.314 490.466 787.601 487.783 776.733C485.252 777.154 482.721 777.576 480.113 778.011C480.113 779.698 480.113 781.386 480.113 783.125C478.042 785.314 475.9 787.435 473.721 789.516C472.713 791.019 471.728 792.538 470.765 794.071C465.668 801.308 458.772 803.469 450.312 805.017C447.466 805.416 444.616 805.785 441.763 806.136C440.799 806.264 439.835 806.393 438.842 806.526C435.637 806.952 432.43 807.347 429.22 807.734C428.197 807.867 427.174 808.001 426.12 808.139C417.973 809.046 411.69 808.244 404.692 803.579C403.433 800.225 402.874 796.873 402.135 793.352C398.673 793.533 395.211 793.72 391.749 793.911C390.777 793.961 389.805 794.011 388.803 794.063C383.363 794.368 378.098 794.889 372.734 795.908C372.734 796.752 372.734 797.596 372.734 798.465C369.023 803.033 365.619 804.718 359.951 806.136C358.263 806.136 356.576 806.136 354.838 806.136C354.838 806.979 354.838 807.823 354.838 808.692C346.747 811.047 339.269 811.68 330.869 811.888C321.841 812.193 313.204 812.837 304.319 814.555C297.572 815.681 291.121 815.645 284.53 813.806C284.53 812.962 284.53 812.118 284.53 811.249C283.304 811.057 283.304 811.057 282.054 810.861C275.535 809.824 269.026 808.739 262.529 807.574C260.679 807.242 260.679 807.242 258.792 806.905C247.839 804.605 238.334 799.786 228.455 794.722C221.33 791.08 214.08 787.938 206.662 784.942C200.741 782.214 196.139 779.649 192.491 774.176C192.39 771.195 192.378 768.208 192.491 765.227C197.817 762.564 204.482 763.979 210.228 764.668C216.257 765.303 222.398 765.634 228.284 763.949C230.356 762.069 230.356 762.069 232.119 760.114C233.814 759.651 235.518 759.222 237.232 758.835C238.076 757.991 238.919 757.148 239.789 756.278C248.554 752.624 257.485 750.549 266.848 749.162C273.685 748.116 280.385 746.463 287.087 744.773C286.732 744.046 286.378 743.319 286.013 742.571C283.112 736.386 281.275 731.13 280.695 724.319C277.202 723.154 274.626 722.795 270.998 722.541C264.267 721.911 258.194 720.298 251.773 718.246C250.666 717.906 249.559 717.565 248.418 717.214C243.299 715.631 238.199 713.997 233.117 712.299C223.221 709.023 213.57 706.732 203.255 705.172C197.958 704.369 192.867 703.388 187.697 701.947C180.52 700.023 173.322 699.121 165.966 698.192C137.024 694.372 107.588 685.142 85.1119 665.513C85.1119 664.669 85.1119 663.825 85.1119 662.956C84.2682 662.956 83.4245 662.956 82.5553 662.956C82.5553 662.112 82.5553 661.269 82.5553 660.399C81.7116 660.399 80.8679 660.399 79.9986 660.399C79.5768 658.712 79.1549 657.024 78.7203 655.286C77.8766 655.286 77.0329 655.286 76.1637 655.286C69.2589 647.684 62.9858 640.376 63.3805 629.718C64.6588 627.161 64.6588 627.161 66.9726 626.284C67.9591 626.03 68.9455 625.775 69.9618 625.513C71.0362 625.233 72.1106 624.953 73.2176 624.664C74.348 624.381 75.4784 624.097 76.643 623.805C77.7636 623.512 78.8841 623.219 80.0386 622.917C88.3972 620.769 88.3972 620.769 92.7818 620.769C92.7818 619.925 92.7818 619.082 92.7818 618.212C94.4692 617.791 96.1566 617.369 97.8951 616.934C97.8951 616.09 97.8951 615.247 97.8951 614.377C102.244 611.701 105.632 611.591 110.678 611.821C110.678 610.977 110.678 610.133 110.678 609.264C112.206 608.915 112.206 608.915 113.764 608.56C124.248 606.338 124.248 606.338 133.688 601.593C135.532 597.825 136.317 595.232 136.085 591.047C134.566 588.009 132.909 587.776 129.853 586.253C127.005 584.336 124.187 582.4 121.384 580.42C116.199 576.672 116.199 576.672 110.678 573.469C110.678 572.625 110.678 571.781 110.678 570.912C108.147 570.068 105.616 569.225 103.008 568.355C103.008 567.512 103.008 566.668 103.008 565.799C101.321 564.955 99.6336 564.111 97.8951 563.242C97.8951 562.398 97.8951 561.554 97.8951 560.685C97.0514 560.685 96.2077 560.685 95.3385 560.685C95.3385 559.841 95.3385 558.998 95.3385 558.128C93.2293 557.284 91.12 556.441 88.9469 555.571C88.9469 554.728 88.9469 553.884 88.9469 553.015C87.6813 553.015 86.4158 553.015 85.1119 553.015C85.1119 552.171 85.1119 551.327 85.1119 550.458C82.5808 549.614 80.0498 548.77 77.442 547.901C77.442 547.057 77.442 546.214 77.442 545.344C75.9392 544.83 75.9392 544.83 74.406 544.306C71.0504 542.788 71.0504 542.788 68.4938 538.952C67.2282 538.531 65.9627 538.109 64.6588 537.674C64.6588 536.83 64.6588 535.987 64.6588 535.117C63.6305 534.643 63.6305 534.643 62.5815 534.158C54.4596 529.883 48.9875 525.054 44.2057 517.22C44.2057 516.376 44.2057 515.532 44.2057 514.663C43.362 514.663 42.5183 514.663 41.649 514.663C38.2442 508.674 35.5208 503.871 36.5358 496.766C40.5915 492.71 45.5049 493.633 51.0417 493.37C52.1606 493.225 53.2794 493.08 54.4322 492.93C54.8541 492.087 55.2759 491.243 55.7106 490.374C57.5481 488.296 57.5481 488.296 59.5455 486.538C60.3892 486.538 61.2329 486.538 62.1022 486.538C61.4958 485.167 60.8893 483.796 60.2646 482.384C58.8582 479.113 57.6898 475.981 56.9889 472.476C56.1452 472.476 55.3015 472.476 54.4322 472.476C52.0131 469.596 49.7689 466.724 47.5613 463.687C46.9227 462.809 46.2842 461.931 45.6263 461.027C40.9852 454.488 37.5299 448.243 35.2574 440.516C34.6939 438.806 34.6939 438.806 34.1189 437.061C31.9571 430.025 31.1896 423.934 31.4574 416.597C31.4061 412.302 30.1705 408.799 28.8658 404.722C28.8658 403.034 28.8658 401.347 28.8658 399.608C28.0221 399.608 27.1784 399.608 26.3092 399.608C25.4787 397.235 25.4787 397.235 24.6314 394.814C23.118 390.735 21.3858 387.668 18.6393 384.267C18.6393 383.424 18.6393 382.58 18.6393 381.711C17.7956 381.711 16.9519 381.711 16.0826 381.711C16.0826 380.867 16.0826 380.023 16.0826 379.154C15.2389 379.154 14.3952 379.154 13.526 379.154C13.526 377.466 13.526 375.779 13.526 374.04C12.6823 374.04 11.8386 374.04 10.9693 374.04C5.09897 360.779 5.09897 360.779 5.85606 353.586C5.01237 353.164 4.16868 352.742 3.29942 352.308C1.17655 346.083 0.406589 339.688 0.742781 333.132C1.58647 333.132 2.43016 333.132 3.29942 333.132C3.29942 332.288 3.29942 331.444 3.29942 330.575C9.05779 327.188 13.562 328.1 19.9176 329.297C22.5001 330.067 25.0722 330.886 27.5875 331.853C27.5875 332.697 27.5875 333.541 27.5875 334.41C28.6998 334.66 28.6998 334.66 29.8346 334.915C32.6237 335.668 35.0339 336.638 37.6543 337.846C49.4316 343.173 61.2111 348.354 73.4672 352.487C76.1637 353.586 76.1637 353.586 78.7203 356.143C81.3826 356.935 84.0795 357.612 86.7897 358.22C88.9574 358.72 88.9574 358.72 91.169 359.229C98.2108 360.634 98.2108 360.634 104.526 358.06C105.291 357.428 106.056 356.795 106.843 356.143C107.687 356.143 108.531 356.143 109.4 356.143C109.4 355.299 109.4 354.455 109.4 353.586C115.499 351.005 118.66 350.868 124.82 353.266C134.629 357.332 142.196 363.525 150.306 370.205C151.572 371.049 152.837 371.893 154.141 372.762C154.141 373.606 154.141 374.449 154.141 375.319C154.985 375.319 155.829 375.319 156.698 375.319C157.12 377.006 157.542 378.694 157.976 380.432C159.242 380.432 160.507 380.432 161.811 380.432C162.259 381.355 162.708 382.278 163.169 383.229C167.105 388.942 171.814 391.308 178.429 393.216C185.66 393.946 192.918 393.594 200.161 393.216C200.583 392.372 201.004 391.529 201.439 390.659C202.705 391.081 203.97 391.503 205.274 391.938C205.274 391.094 205.274 390.25 205.274 389.381C206.54 389.381 207.805 389.381 209.109 389.381C209.452 388.59 209.795 387.799 210.148 386.984C211.666 384.267 211.666 384.267 215.501 381.711C223.455 381.995 223.455 381.995 226.926 385.466C228.284 388.103 228.284 388.103 228.284 390.659C229.127 390.659 229.971 390.659 230.84 390.659C232.599 393.179 234.295 395.743 235.954 398.33C239.113 403.069 242.542 405.829 247.219 408.956C253.498 413.198 258.165 417.937 262.798 423.897C263.512 424.789 264.225 425.68 264.961 426.599C266.633 429.011 266.633 429.011 266.633 431.568C267.477 431.568 268.321 431.568 269.19 431.568C276.68 444.676 276.68 444.676 278.044 447.063C278.971 448.685 279.899 450.308 280.827 451.93C282.744 455.281 284.653 458.635 286.527 462.009C288.323 465.138 288.323 465.138 292.2 467.363C303.087 469.2 313.639 469.519 324.158 466.084C327.443 455.805 328.583 448.318 325.436 437.96C325.093 436.76 324.751 435.56 324.398 434.324C323.503 431.261 322.571 428.216 321.601 425.176C320.757 425.176 319.914 425.176 319.045 425.176C313.771 416.547 310.43 409.79 310.096 399.608C309.253 399.608 308.409 399.608 307.54 399.608C307.54 397.921 307.54 396.233 307.54 394.494C306.696 394.494 305.852 394.494 304.983 394.494C302.267 392.098 302.267 392.098 299.87 389.381C299.87 388.537 299.87 387.693 299.87 386.824C299.026 386.824 298.182 386.824 297.313 386.824C297.313 385.98 297.313 385.137 297.313 384.267C296.469 384.267 295.626 384.267 294.756 384.267C294.756 383.424 294.756 382.58 294.756 381.711C293.913 381.711 293.069 381.711 292.2 381.711C290.397 379.364 290.397 379.364 288.285 376.118C284.967 371.209 281.475 366.852 277.419 362.535C264.077 348.049 264.077 348.049 264.077 338.245C263.233 338.245 262.389 338.245 261.52 338.245C260.871 336.947 260.222 335.648 259.553 334.31C259.13 333.466 258.708 332.621 258.273 331.75C257.343 329.891 256.414 328.031 255.485 326.172C253.33 321.858 251.17 317.547 248.997 313.242C247.998 311.262 247.998 311.262 246.979 309.242C246.389 308.077 245.799 306.912 245.192 305.711C240.695 296.359 237.301 286.087 238.51 275.604C240.578 272.2 240.578 272.2 243.624 269.212C247.461 268.41 247.461 268.41 251.928 268.398C253.567 268.373 255.205 268.347 256.894 268.321C258.622 268.323 260.351 268.328 262.079 268.334C280.518 268.508 280.518 268.508 298.591 265.377C301.593 260.875 301.865 257.27 302.187 252.034C302.244 251.127 302.302 250.219 302.361 249.284C302.722 240.951 301.141 233.673 298.591 225.747C298.152 224.046 297.72 222.343 297.313 220.634C296.469 220.634 295.626 220.634 294.756 220.634C293.891 219.043 293.042 217.443 292.2 215.84C291.725 214.95 291.251 214.06 290.762 213.143C289.643 210.407 289.643 210.407 289.643 205.293C288.799 205.293 287.956 205.293 287.087 205.293C286.825 203.861 286.563 202.429 286.293 200.954C285.945 199.071 285.597 197.188 285.249 195.306C284.991 193.89 284.991 193.89 284.727 192.447C284 188.529 283.235 184.789 281.973 181.004C281.867 178.364 281.836 175.721 281.848 173.079C281.853 171.534 281.857 169.989 281.861 168.397C281.872 166.783 281.882 165.169 281.893 163.506C281.899 161.877 281.905 160.248 281.911 158.569C281.926 154.542 281.947 150.515 281.973 146.487C282.817 146.487 283.661 146.487 284.53 146.487C284.53 144.8 284.53 143.112 284.53 141.374C285.374 141.374 286.217 141.374 287.087 141.374C287.087 140.53 287.087 139.686 287.087 138.817C290.813 136.72 293.781 135.879 298.032 135.541C301.558 135.25 304.14 134.837 307.54 133.703C307.54 132.016 307.54 130.328 307.54 128.59C308.383 128.59 309.227 128.59 310.096 128.59C309.991 127.667 309.885 126.744 309.777 125.793C310.195 121.084 312.146 119.32 315.21 115.806C317.559 111.759 318.907 107.472 320.323 103.022C321.167 103.022 322.01 103.022 322.88 103.022C323.077 101.4 323.077 101.4 323.279 99.7461C324.538 93.4522 327.109 88.0389 330.15 82.408C334.07 73.2942 332.103 61.9076 330.834 52.3259C330.255 46.2339 330.456 40.1018 330.549 33.989C329.706 33.989 328.862 33.989 327.993 33.989C327.76 33.2771 327.528 32.5652 327.289 31.8317C326.807 30.3684 326.807 30.3684 326.315 28.8755C325.969 27.8224 325.623 26.7694 325.266 25.6845C324.278 22.8301 323.164 20.0761 322.001 17.2901C319.984 12.0323 319.93 7.62843 320.323 2.0293C321.601 0.750915 321.601 0.750915 326.635 0.19162Z" fill="#C45231"/>
</svg>
